<svg width="180" height="40" viewBox="0 0 180 40" fill="none" xmlns="http://www.w3.org/2000/svg">
<g clip-path="url(#clip0)">
<path d="M37.9684 0H1.99833C0.894685 0 0 0.89543 0 2V38C0 39.1046 0.894685 40 1.99833 40H37.9684C39.072 40 39.9667 39.1046 39.9667 38V2C39.9667 0.89543 39.072 0 37.9684 0Z" fill="#121214"/>
<path d="M31.8235 17.33L31.174 15.7L29.975 12.81C29.4992 11.6063 28.6736 10.573 27.6049 9.84391C26.5361 9.11478 25.2734 8.72327 23.98 8.72H16.6261C15.3327 8.72327 14.07 9.11478 13.0013 9.84391C11.9326 10.573 11.1069 11.6063 10.6311 12.81L9.45212 15.7L8.79267 17.33C8.09076 17.5959 7.48635 18.0694 7.05979 18.6875C6.63323 19.3055 6.40473 20.0388 6.40466 20.79V23.57C6.40748 24.4646 6.73404 25.3279 7.3239 26V29.13C7.32258 29.3751 7.36968 29.618 7.46249 29.8449C7.55529 30.0717 7.69198 30.2779 7.86468 30.4517C8.03738 30.6255 8.2427 30.7634 8.46883 30.8575C8.69497 30.9516 8.93745 31 9.18235 31H11.0408C11.2844 31 11.5256 30.9518 11.7505 30.8582C11.9754 30.7646 12.1796 30.6275 12.3514 30.4546C12.5232 30.2818 12.6591 30.0766 12.7514 29.851C12.8437 29.6254 12.8906 29.3838 12.8893 29.14V27.29H27.7269V29.14C27.7269 29.6333 27.9227 30.1064 28.2712 30.4552C28.6197 30.804 29.0925 31 29.5853 31H31.4438C31.6874 31 31.9286 30.9518 32.1535 30.8582C32.3784 30.7646 32.5826 30.6275 32.7544 30.4546C32.9262 30.2818 33.0621 30.0766 33.1544 29.851C33.2467 29.6254 33.2936 29.3838 33.2923 29.14V26C33.8872 25.3262 34.2174 24.4592 34.2215 23.56V20.79C34.2206 20.0377 33.9907 19.3035 33.5622 18.6853C33.1338 18.0671 32.5273 17.5943 31.8235 17.33V17.33ZM14.0483 14.19C14.254 13.6739 14.6096 13.2313 15.0691 12.9193C15.5286 12.6074 16.0709 12.4404 16.6261 12.44H23.98C24.5366 12.4398 25.0806 12.6063 25.5418 12.9182C26.003 13.2301 26.3604 13.6731 26.5679 14.19L27.7169 17.08H12.8893L14.0483 14.19ZM11.0508 23.56C10.5606 23.56 10.0904 23.3651 9.74373 23.0181C9.39708 22.6712 9.20233 22.2007 9.20233 21.71C9.20233 21.2193 9.39708 20.7488 9.74373 20.4019C10.0904 20.0549 10.5606 19.86 11.0508 19.86C11.7343 20.0016 12.3615 20.3403 12.8551 20.8342C13.3486 21.3282 13.687 21.9559 13.8285 22.64C13.8285 23.75 12.1599 23.56 11.0508 23.56V23.56ZM29.5953 23.56C28.4863 23.56 26.8077 23.75 26.8077 22.64C26.9511 21.9551 27.2913 21.3271 27.7866 20.8332C28.2818 20.3393 28.9105 20.0011 29.5953 19.86C30.0856 19.86 30.5557 20.0549 30.9024 20.4019C31.2491 20.7488 31.4438 21.2193 31.4438 21.71C31.4438 22.2007 31.2491 22.6712 30.9024 23.0181C30.5557 23.3651 30.0856 23.56 29.5953 23.56V23.56Z" fill="#5777DE"/>
<path d="M47.3805 29V11H52.2165V14.14H52.3963C52.6522 13.1351 53.2316 12.2424 54.045 11.6C54.8163 11.0291 55.7534 10.727 56.7127 10.74C56.9824 10.7263 57.2525 10.7263 57.5221 10.74C57.7783 10.7628 58.0322 10.8063 58.2814 10.87V15.29C57.953 15.2042 57.6192 15.1408 57.2823 15.1C56.9045 15.0509 56.5242 15.0242 56.1432 15.02C55.4467 15.0029 54.7578 15.1684 54.1449 15.5C53.5833 15.804 53.1165 16.2574 52.796 16.81C52.4529 17.3978 52.28 18.0695 52.2964 18.75V29H47.3805Z" fill="#FDFDFF"/>
<path d="M68.1832 29.31C66.5229 29.359 64.879 28.9692 63.4172 28.18C62.1039 27.4456 61.0368 26.3393 60.3497 25C59.5987 23.4711 59.2285 21.7831 59.2706 20.08C59.2342 18.3935 59.6044 16.723 60.3497 15.21C61.0182 13.8598 62.0582 12.7287 63.3472 11.95C64.7411 11.1386 66.3312 10.7269 67.9434 10.76C69.0733 10.7521 70.1958 10.9416 71.2606 11.32C72.2798 11.6776 73.2101 12.2506 73.9883 13C74.7924 13.8041 75.4068 14.7778 75.7868 15.85C76.2342 17.1351 76.4507 18.4893 76.4263 19.85V21.22H61.259V18.16H71.7402C71.7498 17.4936 71.588 16.8359 71.2706 16.25C70.9486 15.7209 70.4894 15.2889 69.9417 15C69.3559 14.674 68.6933 14.5116 68.0233 14.53C67.322 14.5153 66.6303 14.6952 66.025 15.05C65.4514 15.3808 64.9783 15.8612 64.6561 16.44C64.3311 17.0351 64.1594 17.7018 64.1565 18.38V21.31C64.1362 22.1089 64.3075 22.901 64.6561 23.62C64.9689 24.2473 65.4587 24.7688 66.0649 25.12C66.7259 25.4809 67.4705 25.6603 68.2231 25.64C68.7384 25.6446 69.2511 25.567 69.7419 25.41C70.1812 25.2656 70.5837 25.0267 70.9209 24.71C71.2534 24.3875 71.5095 23.9946 71.6703 23.56L76.2764 23.86C76.0809 24.9089 75.62 25.8902 74.9376 26.71C74.1749 27.5591 73.2234 28.2169 72.1599 28.63C70.8911 29.1135 69.5403 29.3445 68.1832 29.31V29.31Z" fill="#FDFDFF"/>
<path d="M84.6595 18.57V29H79.6636V11H84.4097V14.17H84.6195C85.0051 13.149 85.7049 12.2771 86.6178 11.68C87.6399 11.0489 88.8247 10.7325 90.025 10.77C91.1653 10.74 92.2919 11.0236 93.2823 11.59C94.2165 12.1385 94.9701 12.9484 95.4505 13.92C95.9878 15.0458 96.2514 16.2828 96.2198 17.53V29H91.224V18.41C91.281 17.4729 90.9771 16.5496 90.3747 15.83C90.0745 15.5134 89.7088 15.2661 89.3033 15.1055C88.8978 14.9448 88.4621 14.8747 88.0266 14.9C87.4097 14.8856 86.7997 15.0339 86.2581 15.33C85.7466 15.6238 85.333 16.0621 85.0691 16.59C84.7731 17.2066 84.6325 17.8864 84.6595 18.57V18.57Z" fill="#FDFDFF"/>
<path d="M109.699 11V14.74H98.9176V11H109.699ZM101.336 6.69H106.331V23.44C106.312 23.8085 106.384 24.1762 106.541 24.51C106.67 24.75 106.879 24.9374 107.131 25.04C107.411 25.1485 107.709 25.2028 108.01 25.2C108.248 25.1965 108.485 25.1731 108.719 25.13L109.249 25.03L110.038 28.74C109.789 28.82 109.439 28.91 108.979 29.02C108.44 29.1338 107.891 29.1974 107.341 29.21C106.266 29.2808 105.188 29.117 104.183 28.73C103.323 28.392 102.59 27.7943 102.085 27.02C101.559 26.1361 101.302 25.1178 101.346 24.09L101.336 6.69Z" fill="#FDFDFF"/>
<path d="M120.899 29.31C119.241 29.3573 117.6 28.9529 116.153 28.14C114.861 27.3608 113.82 26.2255 113.156 24.87C112.426 23.3701 112.063 21.718 112.097 20.05C112.061 18.3711 112.428 16.7082 113.166 15.2C113.832 13.8454 114.872 12.7105 116.163 11.93C117.593 11.1207 119.217 10.7162 120.859 10.76C122.278 10.727 123.686 11.0177 124.976 11.61C126.108 12.1416 127.075 12.9711 127.774 14.01C128.469 15.096 128.855 16.3508 128.893 17.64H124.197C124.104 16.8182 123.734 16.0526 123.147 15.47C122.853 15.1881 122.505 14.9692 122.124 14.8265C121.742 14.6838 121.336 14.6203 120.929 14.64C120.212 14.627 119.511 14.8481 118.931 15.27C118.317 15.7328 117.851 16.3655 117.592 17.09C117.25 18.0139 117.087 18.9949 117.112 19.98C117.084 20.9742 117.243 21.9649 117.582 22.9C117.835 23.6277 118.293 24.2666 118.901 24.74C119.417 25.0961 120.017 25.3095 120.642 25.3587C121.266 25.4078 121.893 25.291 122.458 25.02C122.917 24.7898 123.309 24.4455 123.597 24.02C123.913 23.5312 124.114 22.9775 124.187 22.4H128.893C128.834 23.6762 128.449 24.9159 127.774 26C127.093 27.0488 126.139 27.8923 125.016 28.44C123.729 29.0425 122.32 29.3402 120.899 29.31V29.31Z" fill="#FDFDFF"/>
<path d="M137.206 29.3C136.156 29.3187 135.113 29.1142 134.148 28.7C133.279 28.3242 132.54 27.7019 132.02 26.91C131.475 26.0073 131.207 24.9639 131.251 23.91C131.22 23.0404 131.409 22.1772 131.8 21.4C132.147 20.7341 132.66 20.1692 133.289 19.76C133.954 19.3335 134.682 19.0161 135.447 18.82C136.283 18.6037 137.135 18.4566 137.995 18.38C138.994 18.27 139.883 18.17 140.513 18.07C141.004 18.018 141.479 17.8684 141.912 17.63C142.051 17.5334 142.164 17.4029 142.239 17.2507C142.314 17.0984 142.349 16.9296 142.341 16.76V16.69C142.361 16.3692 142.308 16.0482 142.187 15.7505C142.066 15.4529 141.88 15.1862 141.642 14.97C141.073 14.5303 140.361 14.3167 139.644 14.37C138.886 14.3278 138.135 14.535 137.505 14.96C136.997 15.3186 136.626 15.841 136.456 16.44L131.89 16.09C132.099 15.0408 132.574 14.0629 133.269 13.25C133.98 12.4334 134.878 11.8019 135.887 11.41C137.096 10.9519 138.381 10.7312 139.674 10.76C140.64 10.7537 141.604 10.8714 142.541 11.11C143.414 11.3203 144.24 11.6898 144.979 12.2C145.687 12.6823 146.269 13.3269 146.678 14.08C147.109 14.9347 147.322 15.8829 147.297 16.84V29H142.571V26.47H142.431C142.156 27.0476 141.773 27.567 141.302 28C140.791 28.4407 140.201 28.7801 139.564 29C138.799 29.2271 138.003 29.3285 137.206 29.3V29.3ZM138.634 25.86C139.307 25.8769 139.973 25.7257 140.573 25.42C141.106 25.1491 141.557 24.742 141.882 24.24C142.199 23.73 142.365 23.1406 142.361 22.54V20.63C142.16 20.7479 141.945 20.8419 141.722 20.91C141.452 20.99 141.152 21.06 140.813 21.13C140.473 21.2 140.143 21.25 139.813 21.3L138.904 21.44C138.379 21.507 137.864 21.6449 137.376 21.85C136.985 22.012 136.641 22.27 136.376 22.6C136.129 22.9423 136.002 23.3576 136.017 23.78C136.001 24.0796 136.061 24.3783 136.19 24.649C136.319 24.9197 136.514 25.1538 136.756 25.33C137.312 25.6971 137.969 25.8822 138.634 25.86Z" fill="#FDFDFF"/>
<path d="M151.194 29V11H156.02V14.14H156.21C156.466 13.1301 157.05 12.2335 157.868 11.59C158.639 11.0177 159.577 10.7155 160.536 10.73C160.803 10.7163 161.069 10.7163 161.336 10.73C161.592 10.7519 161.846 10.7954 162.095 10.86V15.28C161.767 15.1921 161.433 15.1286 161.096 15.09C160.721 15.0409 160.344 15.0142 159.967 15.01C159.27 14.9896 158.58 15.1553 157.968 15.49C157.402 15.7908 156.931 16.2447 156.61 16.8C156.271 17.3895 156.098 18.06 156.11 18.74V29H151.194Z" fill="#FDFDFF"/>
<path d="M179.59 16.12L175.034 16.4C174.956 16.0096 174.78 15.6451 174.525 15.34C174.258 15.0093 173.915 14.7485 173.525 14.58C173.056 14.3776 172.548 14.2787 172.037 14.29C171.354 14.2659 170.678 14.4358 170.088 14.78C169.848 14.8992 169.646 15.0831 169.505 15.311C169.364 15.539 169.289 15.8018 169.289 16.07C169.288 16.2782 169.333 16.484 169.421 16.6726C169.509 16.8612 169.638 17.0277 169.799 17.16C170.327 17.5274 170.932 17.7701 171.567 17.87L174.814 18.53C176.249 18.7413 177.6 19.3393 178.721 20.26C179.148 20.6582 179.485 21.1439 179.707 21.6841C179.93 22.2243 180.033 22.8062 180.01 23.39C180.039 24.507 179.687 25.6006 179.011 26.49C178.27 27.423 177.294 28.1411 176.183 28.57C174.87 29.0883 173.468 29.3399 172.057 29.31C170.053 29.4169 168.066 28.8961 166.371 27.82C165.688 27.3615 165.111 26.762 164.678 26.0617C164.246 25.3614 163.968 24.5766 163.863 23.76L168.759 23.5C168.82 23.8357 168.949 24.1554 169.138 24.4392C169.327 24.7231 169.572 24.965 169.858 25.15C170.514 25.5138 171.25 25.7096 171.999 25.7201C172.749 25.7305 173.489 25.5553 174.155 25.21C174.393 25.082 174.593 24.8935 174.735 24.6635C174.877 24.4336 174.956 24.1702 174.964 23.9C174.965 23.6814 174.914 23.4656 174.815 23.2708C174.716 23.0759 174.572 22.9077 174.395 22.78C173.877 22.4274 173.286 22.1982 172.666 22.11L169.559 21.49C168.102 21.2794 166.739 20.6428 165.642 19.66C165.218 19.2225 164.886 18.7039 164.666 18.1353C164.446 17.5666 164.343 16.9594 164.363 16.35C164.329 15.2726 164.66 14.2154 165.302 13.35C165.992 12.4699 166.912 11.7983 167.96 11.41C169.239 10.9389 170.594 10.7116 171.957 10.74C173.85 10.6336 175.727 11.1383 177.312 12.18C177.95 12.6373 178.482 13.2252 178.875 13.9045C179.268 14.5838 179.512 15.3391 179.59 16.12Z" fill="#FDFDFF"/>
</g>
<defs>
<clipPath id="clip0">
<rect width="180" height="40" fill="white"/>
</clipPath>
</defs>
</svg>
